<svg width="76" height="244" viewBox="0 0 76 244" fill="none" xmlns="http://www.w3.org/2000/svg">
<path d="M17.7583 192.864C20.5817 211.008 12.4915 230.288 16.2457 234.644C20 239 41.5 244.5 45.9926 243C50.4852 241.5 60.1098 215.545 62.6307 191.67C65.1516 167.796 66.16 155.859 73.2186 143.922C80.2772 131.985 72.2102 116.466 67.6726 128.403C63.1349 140.341 57.0847 123.629 65.1516 115.273C73.2186 106.917 60.1098 84.2361 59.1014 98.5606C58.0931 112.885 50.5303 111.691 54.0596 94.9795C57.5889 78.2675 48.5135 68.7178 45.9926 84.2361C43.4717 99.7544 40.4466 97.3669 39.9424 81.8487C39.4382 66.3304 45.4884 40.0686 49.0177 19.7755C52.547 -0.517673 42.9675 -8.87367 38.934 12.6132C34.9005 34.1 31.8754 46.0372 30.3629 67.524C28.8503 89.0108 29.3545 127.21 20.2792 127.21C11.2038 127.21 12.2123 78.2675 8.68296 66.3303C5.15366 54.3932 -0.896558 56.7806 0.111812 106.917C1.12018 157.053 14.229 170.183 17.7583 192.864Z" fill="black"/>
</svg>
